Coordinates
version=1
nRows=8
nColumns=63
inDegrees=yes

Units are S.I. units (second, meters, Newtons, ...)
If the header above contains a line with 'inDegrees', this indicates whether rotational values are in degrees (yes) or radians (no).

endheader
time	pelvis_tilt	pelvis_list	pelvis_rotation	pelvis_tx	pelvis_ty	pelvis_tz	hip_flexion_r	hip_adduction_r	hip_rotation_r	knee_angle_r	knee_angle_r_beta	ankle_angle_r	subtalar_angle_r	mtp_angle_r	hip_flexion_l	hip_adduction_l	hip_rotation_l	knee_angle_l	knee_angle_l_beta	ankle_angle_l	subtalar_angle_l	mtp_angle_l	L5_S1_Flex_Ext	L5_S1_Lat_Bending	L5_S1_axial_rotation	L4_L5_Flex_Ext	L4_L5_Lat_Bending	L4_L5_axial_rotation	L3_L4_Flex_Ext	L3_L4_Lat_Bending	L3_L4_axial_rotation	L2_L3_Flex_Ext	L2_L3_Lat_Bending	L2_L3_axial_rotation	L1_L2_Flex_Ext	L1_L2_Lat_Bending	L1_L2_axial_rotation	L1_T12_Flex_Ext	L1_T12_Lat_Bending	L1_T12_axial_rotation	Abs_r3	Abs_r2	Abs_r1	Abs_t1	Abs_t2	neck_flexion	neck_bending	neck_rotation	arm_flex_r	arm_add_r	arm_rot_r	elbow_flex_r	pro_sup_r	wrist_flex_r	wrist_dev_r	arm_flex_l	arm_add_l	arm_rot_l	elbow_flex_l	pro_sup_l	wrist_flex_l	wrist_dev_l
      0.00000000	      7.31632433	     -4.59279811	     99.31871523	      0.30380928	      1.07281107	      0.38810656	      0.19251137	      2.76776986	    -20.60333215	      8.98664299	      0.15684651	     42.90002611	     17.05739621	      0.00000000	      6.72076139	     -1.84818609	     -1.95966271	     19.24054953	      0.33581094	     44.94700642	     10.03546738	      0.00000000	      0.20700320	      0.20844129	     -1.47584399	      0.38442564	      0.27722691	     -1.56808423	      0.34008555	      0.50680415	     -1.56808423	      0.23658395	      0.50680415	     -1.29136349	      0.19222317	      0.42505347	     -1.19912324	      0.11828163	      0.32287556	     -1.10688299	      1.47860314	      2.35792954	     -8.20820149	      0.00000000	      0.00000000	     16.90091209	      1.04551546	     -0.68952702	     15.53466494	     -7.10966948	     65.21179774	     40.52890376	     26.12134405	     11.91986953	      9.17127771	     17.31925224	     -5.96610943	     71.51169138	     42.62036706	     50.59038989	    -10.27740389	    -11.69022196
      0.01694915	      6.50940963	     -4.48190975	     98.96739685	      0.30472363	      1.07260650	      0.38658750	     -0.21925939	      1.82738133	    -21.72448010	      9.90517158	      0.17287786	     42.86122040	     17.72894573	      0.00000000	      6.37502906	     -1.12396026	     -2.79601866	     19.29398465	      0.33674356	     44.69974914	     10.08192318	      0.00000000	      0.20453647	      0.11156476	     -1.39025678	      0.37984467	      0.14838112	     -1.47714782	      0.33603296	      0.27125855	     -1.47714782	      0.23376473	      0.27125855	     -1.21647468	      0.18993256	      0.22750285	     -1.12958363	      0.11687214	      0.17281381	     -1.04269258	      1.46098353	      1.26204283	     -7.73219111	      0.00000000	      0.00000000	     17.11913451	      0.81745719	     -0.90458811	     15.00373093	     -6.61987762	     65.36389708	     41.28664224	     16.74472299	      9.88699796	     12.97844395	     17.54436625	     -6.53315597	     72.15958904	     43.44485487	     49.54776047	    -11.41081977	    -10.71776041
      0.03389831	      5.90451281	     -4.38667209	     98.41600795	      0.30620392	      1.07271198	      0.38489347	     -0.58694563	      1.21379217	    -21.65291372	     10.28595730	      0.17952382	     42.76096558	     17.80603513	      0.00000000	      5.93286423	     -0.58828095	     -3.51145282	     19.04148702	      0.33233664	     44.42110443	      9.77592849	      0.00000000	      0.20396603	      0.03671041	     -1.28483961	      0.37878532	      0.04882484	     -1.36514208	      0.33509580	      0.08925769	     -1.36514208	      0.23311278	      0.08925769	     -1.12423466	      0.18940286	      0.07485986	     -1.04393218	      0.11654619	      0.05686442	     -0.96362970	      1.45690898	      0.41527548	     -7.14589244	      0.00000000	      0.00000000	     17.16763447	      1.03613076	     -0.67337872	     14.42249683	     -5.95324046	     64.81602583	     41.19490123	     12.53558963	      9.26321911	     14.77949729	     17.61778608	     -7.12686638	     72.38053378	     44.30139004	     48.17503934	    -11.77669672	     -9.56513334
      0.05084746	      5.73599385	     -4.22726781	     98.23846426	      0.30669833	      1.07292050	      0.38348740	     -1.04359035	      1.12703387	    -21.49375786	     10.11722868	      0.17657895	     42.63243578	     17.76046595	      0.00000000	      5.72794533	     -0.59221046	     -4.56604039	     19.21941427	      0.33544206	     44.65903770	     10.55628836	      0.00000000	      0.20098530	      0.01707703	     -1.25204856	      0.37324981	      0.02271245	     -1.33030159	      0.33019876	      0.04152109	     -1.33030159	      0.22970610	      0.04152109	     -1.09554249	      0.18663495	      0.03482348	     -1.01728945	      0.11484300	      0.02645232	     -0.93903642	      1.43561793	      0.19317877	     -6.96351846	      0.00000000	      0.00000000	     16.78019695	      0.95210724	     -0.72643418	     14.26567971	     -5.97183704	     65.48718500	     42.05058142	      6.47592014	      6.36708941	     15.88728418	     18.03207298	     -7.16614824	     73.84294082	     44.09755487	     45.79765446	    -12.01650549	    -10.56953688
      0.06779661	      5.62899564	     -4.09876863	     98.27047329	      0.30692441	      1.07323696	      0.38212390	     -1.41529030	      1.11471109	    -21.36078456	      9.81801505	      0.17135669	     42.68749737	     17.76924424	      0.00000000	      5.49309583	     -0.47009924	     -4.36724160	     19.15554867	      0.33432739	     44.65859758	     10.07727594	      0.00000000	      0.20031418	      0.00364045	     -1.26309548	      0.37200346	      0.00484180	     -1.34203895	      0.32909617	      0.00885139	     -1.34203895	      0.22893908	      0.00885139	     -1.10520855	      0.18601175	      0.00742361	     -1.02626508	      0.11445952	      0.00563906	     -0.94732161	      1.43082415	      0.04118150	     -7.02495816	      0.00000000	      0.00000000	     16.30135170	      1.11753482	     -0.55246332	     14.15081917	     -5.83730083	     65.86474591	     41.94120060	      6.08501171	      6.19328528	     15.46779699	     18.32790329	     -7.23709597	     74.97277085	     43.95090971	     43.78996774	    -11.81588249	    -11.32801169
      0.08474576	      5.72806845	     -3.93926530	     98.29126273	      0.30721381	      1.07361896	      0.38086707	     -1.76054181	      1.34538423	    -20.98120157	      9.37999206	      0.16371175	     42.76444966	     17.73668034	      0.00000000	      5.28130587	     -0.71923513	     -5.05625619	     19.17672614	      0.33469701	     44.96615309	     10.80218361	      0.00000000	      0.19638568	      0.01391326	     -1.27969241	      0.36470785	      0.01850464	     -1.35967319	      0.32264204	      0.03382871	     -1.35967319	      0.22444920	      0.03382871	     -1.11973086	      0.18236375	      0.02837192	     -1.03975008	      0.11221478	      0.02155164	     -0.95976931	      1.40276330	      0.15738961	     -7.11726528	      0.00000000	      0.00000000	     15.70960907	      1.31236989	     -0.36005750	     14.23113754	     -5.79590753	     66.61902813	     41.59178661	      7.15547854	      6.87151810	     14.33490846	     18.59231848	     -7.17937607	     76.04295896	     43.58254378	     41.94354702	    -11.26169424	    -12.28592740
      0.10169492	      5.84498554	     -3.77352128	     98.11976704	      0.30793651	      1.07409953	      0.37954431	     -2.08256056	      1.61219636	    -20.21168728	      8.90114021	      0.15535420	     42.83144685	     17.56288834	      0.00000000	      4.99237976	     -1.13292020	     -6.69742924	     19.14975492	      0.33422627	     45.39644122	     12.52712003	      0.00000000	      0.18989322	      0.02332905	     -1.25695399	      0.35265069	      0.03102763	     -1.33551362	      0.31197556	      0.05672225	     -1.33551362	      0.21702896	      0.05672225	     -1.09983474	      0.17633484	      0.04757259	     -1.02127512	      0.10850498	      0.03613669	     -0.94271549	      1.35638825	      0.26390285	     -6.99080101	      0.00000000	      0.00000000	     15.14901341	      1.53378133	     -0.26152112	     14.16450512	     -5.72564535	     66.82224928	     41.32145142	      8.74129222	      7.09114273	     13.48190663	     18.73307459	     -7.13101862	     76.78482003	     43.24123271	     40.90088330	    -10.68147661	    -12.88207258
      0.11864407	      6.01082326	     -3.65242311	     98.50324509	      0.30779418	      1.07439534	      0.37850519	     -2.39380518	      1.93246042	    -20.21630043	      8.38976972	      0.14642911	     42.89844807	     17.61406102	      0.00000000	      4.86799304	     -1.40254944	     -6.81948060	     19.17867694	      0.33473106	     45.66464607	     13.11172791	      0.00000000	      0.18923892	      0.03702518	     -1.32962031	      0.35143560	      0.04924348	     -1.41272158	      0.31090062	      0.09002301	     -1.41272158	      0.21628116	      0.09002301	     -1.16341777	      0.17572726	      0.07550174	     -1.08031650	      0.10813112	      0.05735200	     -0.99721523	      1.35171468	      0.41883619	     -7.39494928	      0.00000000	      0.00000000	     14.74872433	      1.71704341	     -0.22297040	     14.13144329	     -5.64694036	     67.09028794	     40.89590436	     10.73448729	      7.91503445	     12.47767587	     18.81680100	     -7.03974332	     77.40388258	     42.87636609	     40.42246543	    -10.13434997	    -13.27640036
